<svg width="51" height="70" viewBox="0 0 51 70" fill="none" xmlns="http://www.w3.org/2000/svg">
<path d="M2.31422 54.5995C3.81498 55.8859 5.53012 57.0651 7.78127 58.1371C9.92522 59.209 12.2836 59.9594 14.8563 60.6026C17.8579 61.2458 20.5378 61.5674 23.1106 61.5674C26.3265 61.5674 29.328 61.1386 32.0079 60.1738C34.6879 59.3162 36.7246 58.0299 38.3326 56.3147C39.9406 54.4923 40.691 52.5628 40.691 50.3116C40.691 47.5245 39.4046 45.2733 36.8318 43.5582C34.2591 41.843 30.0784 40.5566 24.5041 39.5919L19.1442 38.6271C12.9268 37.5551 8.21009 35.4112 4.99416 32.4096C1.88543 29.4081 0.277435 25.549 0.277435 20.7251C0.277435 16.7588 1.34942 13.3284 3.60057 10.2197C5.74452 7.11098 8.96046 4.75262 12.9268 3.03746C16.8931 1.3223 21.3954 0.464722 26.4337 0.464722H28.0417C34.3663 0.679117 40.155 2.07268 45.5149 4.64542L45.1933 13.8644C39.1902 10.3269 33.0799 8.50455 26.6481 8.50455C23.4321 8.50455 20.645 8.93334 18.0723 9.89812C15.4995 10.7557 13.4628 12.1493 11.962 13.7572C10.354 15.5796 9.60364 17.6164 9.60364 19.8675C9.60364 22.6546 10.7828 24.9058 13.1412 26.6209C15.4995 28.3361 19.3586 29.6225 24.7185 30.5873L29.4352 31.3376C36.4031 32.5168 41.5485 34.5536 44.9789 37.5551C48.4092 40.5566 50.1243 44.4158 50.1243 49.2397C50.1243 53.206 49.0524 56.6363 46.8012 59.745C44.5501 62.8538 41.3341 65.2121 37.2606 66.9273C33.1871 68.6424 28.5776 69.5 23.4321 69.5H22.0386C18.5011 69.3928 14.9635 68.8568 11.426 67.892C7.88849 66.9273 4.56536 65.6409 1.67102 64.0329L2.31422 54.5995Z" fill="#353238"/>
</svg>
